<svg width="24" height="24" viewBox="0 0 24 24" fill="none" xmlns="http://www.w3.org/2000/svg">
<path fill-rule="evenodd" clip-rule="evenodd" d="M10.3078 4.19893C12.0097 3.81442 13.7902 3.99034 15.3839 4.70045C15.8884 4.92523 16.4796 4.69849 16.7043 4.19402C16.9291 3.68955 16.7024 3.09837 16.1979 2.87359C14.2103 1.98795 11.9896 1.76855 9.86706 2.2481C7.74454 2.72766 5.83389 3.88048 4.42008 5.53464C3.00627 7.18879 2.16505 9.25565 2.02187 11.427C1.8787 13.5983 2.44124 15.7577 3.62561 17.5832C4.80997 19.4087 6.5527 20.8024 8.59387 21.5565C10.6351 22.3106 12.8653 22.3847 14.952 21.7677C17.0388 21.1507 18.8701 19.8757 20.173 18.1329C21.476 16.39 22.1806 14.2727 22.1818 12.0967V12.0961V11.2597C22.1818 10.7075 21.7341 10.2597 21.1818 10.2597C20.6295 10.2597 20.1818 10.7075 20.1818 11.2597V12.0955C20.1808 13.8403 19.6159 15.538 18.5712 16.9354C17.5265 18.3328 16.0581 19.3551 14.385 19.8498C12.7118 20.3445 10.9236 20.2851 9.28698 19.6804C7.65036 19.0758 6.25304 17.9583 5.30341 16.4946C4.35379 15.0309 3.90274 13.2995 4.01754 11.5586C4.13234 9.8176 4.80683 8.16039 5.94043 6.83408C7.07402 5.50778 8.60598 4.58344 10.3078 4.19893ZM21.8893 5.53015C22.2796 5.13943 22.2793 4.50627 21.8886 4.11594C21.4978 3.72561 20.8647 3.72592 20.4744 4.11664L12.0906 12.5088L10.0707 10.489C9.68022 10.0985 9.04705 10.0985 8.65653 10.489C8.266 10.8795 8.266 11.5127 8.65653 11.9032L11.3838 14.6305C11.5714 14.8181 11.8259 14.9235 12.0912 14.9234C12.3565 14.9233 12.6109 14.8178 12.7984 14.6301L21.8893 5.53015Z" fill="black"/>
</svg>
