<svg width="24" height="24" viewBox="0 0 24 24" fill="none" xmlns="http://www.w3.org/2000/svg">
<path fill-rule="evenodd" clip-rule="evenodd" d="M23 12C23 18.0751 18.0751 23 12 23C5.92487 23 0.999999 18.0751 0.999999 12C1 5.92487 5.92487 0.999999 12 0.999999C18.0751 1 23 5.92487 23 12ZM16.7071 12.7071C16.3166 13.0976 15.6834 13.0976 15.2929 12.7071L13 10.4142L13 16C13 16.5523 12.5523 17 12 17C11.4477 17 11 16.5523 11 16L11 10.4142L8.70711 12.7071C8.31658 13.0976 7.68342 13.0976 7.29289 12.7071C6.90237 12.3166 6.90237 11.6834 7.29289 11.2929L11.2922 7.29361C11.2946 7.29119 11.297 7.28879 11.2995 7.28639C11.4792 7.1099 11.7254 7.0008 11.997 7L12 7L12.003 7C12.1375 7.0004 12.2657 7.02735 12.3828 7.07588C12.498 7.12357 12.6062 7.19374 12.7005 7.28639C12.703 7.28879 12.7054 7.29119 12.7078 7.29361L16.7071 11.2929C17.0976 11.6834 17.0976 12.3166 16.7071 12.7071Z" fill="currentColor"/>
</svg>
