<svg width="24" height="24" viewBox="0 0 24 24" fill="none" xmlns="http://www.w3.org/2000/svg">
<path fill-rule="evenodd" clip-rule="evenodd" d="M16.9549 8.51666C17.0798 8.15897 16.9918 7.76142 16.7276 7.48984C16.4634 7.21826 16.0685 7.11928 15.7075 7.23419L9.71783 9.14066C9.41807 9.23608 9.18068 9.46698 9.077 9.76398L7.08046 15.4834C6.95559 15.8411 7.04359 16.2386 7.30775 16.5102C7.57192 16.7818 7.96687 16.8808 8.32789 16.7659L14.3175 14.8594C14.6173 14.764 14.8547 14.5331 14.9583 14.2361L16.9549 8.51666ZM9.62829 14.2531L10.8006 10.8949L14.4071 9.74697L13.2348 13.1052L9.62829 14.2531Z" fill="#991758"/>
<path fill-rule="evenodd" clip-rule="evenodd" d="M12.0177 2.0072C6.30816 2.0072 1.60001 6.43813 1.60001 12C1.60001 17.5619 6.30816 21.9928 12.0177 21.9928C17.7272 21.9928 22.4353 17.5619 22.4353 12C22.4353 6.43813 17.7272 2.0072 12.0177 2.0072ZM3.60001 12C3.60001 7.6287 7.32472 4.0072 12.0177 4.0072C16.7106 4.0072 20.4353 7.6287 20.4353 12C20.4353 16.3713 16.7106 19.9928 12.0177 19.9928C7.32472 19.9928 3.60001 16.3713 3.60001 12Z" fill="#991758"/>
</svg>
