<svg viewBox="0 0 24 24" fill="none" xmlns="http://www.w3.org/2000/svg">
<path fill-rule="evenodd" clip-rule="evenodd" d="M6.7587 3H17.2413C18.0463 2.99999 18.7106 2.99998 19.2518 3.04419C19.8139 3.09012 20.3306 3.18868 20.816 3.43597C21.5686 3.81947 22.1805 4.43139 22.564 5.18404C22.8027 5.65238 22.9028 6.14994 22.9508 6.68931C23.0042 6.8527 23.0136 7.02505 22.9819 7.18959C23 7.63971 23 8.16035 23 8.75868V15.2413C23 16.0463 23 16.7106 22.9558 17.2518C22.9099 17.8139 22.8113 18.3306 22.564 18.816C22.1805 19.5686 21.5686 20.1805 20.816 20.564C20.3306 20.8113 19.8139 20.9099 19.2518 20.9558C18.7106 21 18.0463 21 17.2413 21H6.75868C5.95372 21 5.28937 21 4.74818 20.9558C4.18608 20.9099 3.66938 20.8113 3.18404 20.564C2.43139 20.1805 1.81947 19.5686 1.43598 18.816C1.18868 18.3306 1.09012 17.8139 1.0442 17.2518C0.999978 16.7106 0.999989 16.0463 1 15.2413V8.7587C0.999992 8.16037 0.999984 7.63972 1.01814 7.1896C0.986382 7.02505 0.995755 6.85269 1.04922 6.6893C1.09721 6.14993 1.19734 5.65238 1.43598 5.18404C1.81947 4.43139 2.43139 3.81947 3.18404 3.43597C3.66938 3.18868 4.18608 3.09012 4.74818 3.04419C5.28937 2.99998 5.95373 2.99999 6.7587 3ZM3 8.92066V15.2C3 16.0566 3.00078 16.6389 3.03755 17.089C3.07337 17.5274 3.1383 17.7516 3.21799 17.908C3.40974 18.2843 3.7157 18.5903 4.09202 18.782C4.24842 18.8617 4.47262 18.9266 4.91104 18.9624C5.36113 18.9992 5.94342 19 6.8 19H17.2C18.0566 19 18.6389 18.9992 19.089 18.9624C19.5274 18.9266 19.7516 18.8617 19.908 18.782C20.2843 18.5903 20.5903 18.2843 20.782 17.908C20.8617 17.7516 20.9266 17.5274 20.9625 17.089C20.9992 16.6389 21 16.0566 21 15.2V8.92066L14.4085 13.5347C14.3697 13.5618 14.3313 13.5888 14.2932 13.6156C13.7485 13.998 13.2703 14.3338 12.7256 14.4696C12.2492 14.5884 11.7508 14.5884 11.2744 14.4696C10.7297 14.3338 10.2515 13.998 9.70681 13.6156C9.6687 13.5888 9.63026 13.5618 9.59146 13.5347L3 8.92066ZM20.9172 6.53728L13.2616 11.8962C12.5327 12.4065 12.3782 12.495 12.2419 12.529C12.0831 12.5686 11.9169 12.5686 11.7581 12.529C11.6218 12.495 11.4673 12.4065 10.7384 11.8962L3.08277 6.53728C3.11849 6.33012 3.16497 6.19607 3.21799 6.09202C3.40974 5.7157 3.7157 5.40973 4.09202 5.21799C4.24842 5.1383 4.47262 5.07337 4.91104 5.03755C5.36113 5.00078 5.94342 5 6.8 5H17.2C18.0566 5 18.6389 5.00078 19.089 5.03755C19.5274 5.07337 19.7516 5.1383 19.908 5.21799C20.2843 5.40973 20.5903 5.7157 20.782 6.09202C20.835 6.19607 20.8815 6.33012 20.9172 6.53728Z" fill="currentColor"/>
</svg>
