<svg viewBox="0 0 24 24" fill="none" xmlns="http://www.w3.org/2000/svg">
<path d="M15.9698 2.0002C14.5695 1.98803 13.2205 2.52632 12.2133 3.49913L12.203 3.50925L10.7098 4.99369C10.3182 5.38307 10.3163 6.01623 10.7057 6.40789C11.0951 6.79955 11.7283 6.8014 12.1199 6.41202L13.6076 4.93302C14.2371 4.32749 15.0788 3.99254 15.9524 4.00013C16.8282 4.00774 17.6661 4.35905 18.2854 4.9784C18.9048 5.59774 19.2561 6.43557 19.2637 7.31143C19.2713 8.18457 18.9367 9.02587 18.3318 9.65525L15.734 12.253C15.3954 12.5918 14.9877 12.8539 14.5389 13.0213C14.0901 13.1887 13.6106 13.2576 13.1328 13.2234C12.655 13.1892 12.1902 13.0526 11.7698 12.823C11.3495 12.5933 10.9834 12.2759 10.6965 11.8923C10.3657 11.4501 9.739 11.3597 9.29675 11.6906C8.8545 12.0214 8.76416 12.648 9.09496 13.0903C9.55366 13.7035 10.1389 14.2109 10.8109 14.5781C11.4829 14.9452 12.2261 15.1636 12.9899 15.2183C13.7538 15.273 14.5204 15.1628 15.2379 14.8951C15.9554 14.6275 16.607 14.2087 17.1484 13.6671L19.7525 11.0629L19.7647 11.0505C20.7375 10.0433 21.2758 8.6943 21.2636 7.29405C21.2514 5.8938 20.6898 4.55435 19.6996 3.56418C18.7095 2.57402 17.37 2.01237 15.9698 2.0002Z" fill="currentColor"/>
<path d="M10.2739 8.02818C9.51007 7.97348 8.7434 8.08369 8.0259 8.35133C7.30846 8.61896 6.65696 9.03774 6.11558 9.57928L3.51131 12.1835L3.49913 12.1959C2.52632 13.2032 1.98803 14.5522 2.0002 15.9524C2.01237 17.3527 2.57402 18.6921 3.56418 19.6823C4.55435 20.6725 5.8938 21.2341 7.29405 21.2463C8.6943 21.2584 10.0433 20.7201 11.0505 19.7473L11.0629 19.7352L12.5474 18.2507C12.9379 17.8602 12.9379 17.227 12.5474 16.8365C12.1568 16.446 11.5237 16.446 11.1331 16.8365L9.65524 18.3144C9.02586 18.9193 8.18457 19.2539 7.31143 19.2463C6.43557 19.2387 5.59774 18.8874 4.9784 18.2681C4.35905 17.6487 4.00774 16.8109 4.00013 15.935C3.99254 15.0619 4.32714 14.2206 4.93207 13.5912L7.5298 10.9935C7.86844 10.6547 8.27611 10.3926 8.72491 10.2252C9.1737 10.0578 9.65325 9.98885 10.131 10.0231C10.6088 10.0573 11.0736 10.1939 11.494 10.4235C11.9144 10.6532 12.2804 10.9706 12.5673 11.3541C12.8981 11.7964 13.5248 11.8867 13.9671 11.5559C14.4093 11.2251 14.4997 10.5984 14.1689 10.1562C13.7102 9.54295 13.1249 9.03555 12.4529 8.66839C11.7809 8.30122 11.0377 8.08288 10.2739 8.02818Z" fill="currentColor"/>
</svg>
