<svg viewBox="0 0 400 148" fill="none" xmlns="http://www.w3.org/2000/svg">
<path fill-rule="evenodd" clip-rule="evenodd" d="M41.5895 101.77C31.5881 100.412 21.7142 96.7627 14.022 89.0705C-4.54525 70.5032 -4.69205 40.502 13.6944 22.1155C32.0809 3.72904 62.0821 3.87582 80.6494 22.4431C88.2021 29.9958 91.7964 39.8158 93.1473 49.8087C74.0958 47.2204 54.5765 52.9387 48.7641 54.855C47.6728 55.2349 46.8209 56.0958 46.4523 57.1911C44.5888 63.0422 39.0159 82.7237 41.5895 101.77ZM93.1473 49.8087C103.149 51.1673 113.023 54.8163 120.715 62.5085C139.282 81.0758 139.429 111.077 121.042 129.463C102.656 147.85 72.6548 147.703 54.0875 129.136C46.5348 121.583 42.94 111.763 41.5895 101.77C60.641 104.359 80.1603 98.6403 85.9727 96.724C87.064 96.3441 87.9159 95.4833 88.2846 94.3879C90.1481 88.5368 95.7209 68.8553 93.1473 49.8087Z" fill="#33B8C1"/>
<path d="M188.271 86.8571C187.87 85.8947 187.328 84.6717 186.647 83.188C186.005 81.7043 185.303 80.1002 184.541 78.3759C183.779 76.6516 182.957 74.8872 182.075 73.0827C181.233 71.2381 180.431 69.5138 179.669 67.9098C178.907 66.2657 178.185 64.802 177.504 63.5188C176.862 62.2356 176.341 61.2531 175.94 60.5714C175.499 65.3032 175.138 70.4361 174.857 75.9699C174.576 81.4637 174.336 87.0175 174.135 92.6316H168.421C168.581 89.0225 168.762 85.3935 168.962 81.7444C169.163 78.0551 169.383 74.4461 169.624 70.9173C169.905 67.3484 170.185 63.8797 170.466 60.5113C170.787 57.1428 171.128 53.9549 171.489 50.9474H176.602C177.684 52.7118 178.847 54.797 180.09 57.203C181.333 59.609 182.576 62.1353 183.82 64.7819C185.063 67.3885 186.266 70.015 187.429 72.6616C188.591 75.2682 189.654 77.6541 190.617 79.8195C191.579 77.6541 192.642 75.2682 193.805 72.6616C194.967 70.015 196.17 67.3885 197.414 64.7819C198.657 62.1353 199.9 59.609 201.143 57.203C202.386 54.797 203.549 52.7118 204.632 50.9474H209.744C211.108 64.3809 212.13 78.2757 212.812 92.6316H207.098C206.897 87.0175 206.657 81.4637 206.376 75.9699C206.095 70.4361 205.734 65.3032 205.293 60.5714C204.892 61.2531 204.351 62.2356 203.669 63.5188C203.028 64.802 202.326 66.2657 201.564 67.9098C200.802 69.5138 199.98 71.2381 199.098 73.0827C198.256 74.8872 197.454 76.6516 196.692 78.3759C195.93 80.1002 195.208 81.7043 194.526 83.188C193.885 84.6717 193.363 85.8947 192.962 86.8571H188.271Z" fill="#00313D"/>
<path d="M236.998 50.9474H242.833V92.6316H236.998V50.9474Z" fill="#00313D"/>
<path d="M296.039 50.9474V56H282.926V92.6316H277.092V56H263.979V50.9474H296.039Z" fill="#00313D"/>
<path d="M317.238 92.6316V50.9474H342.682V55.9398H323.072V68.3308H340.516V73.203H323.072V87.6391H344.185V92.6316H317.238Z" fill="#00313D"/>
<path d="M387.03 75.188C387.671 75.99 388.473 77.0526 389.436 78.3759C390.438 79.6591 391.461 81.1027 392.503 82.7068C393.546 84.2707 394.569 85.9148 395.571 87.6391C396.614 89.3634 397.496 91.0276 398.218 92.6316H391.842C391.04 91.1078 390.158 89.5639 389.195 88C388.273 86.4361 387.331 84.9524 386.368 83.5489C385.406 82.1053 384.443 80.7619 383.481 79.5188C382.559 78.2757 381.716 77.193 380.955 76.2707C380.433 76.3108 379.892 76.3308 379.331 76.3308C378.809 76.3308 378.268 76.3308 377.706 76.3308H372.473V92.6316H366.639V51.5489C368.283 51.1479 370.107 50.8872 372.112 50.7669C374.158 50.6065 376.022 50.5263 377.706 50.5263C383.561 50.5263 388.012 51.6291 391.06 53.8346C394.148 56.0401 395.691 59.3283 395.691 63.6992C395.691 66.4662 394.95 68.8321 393.466 70.797C392.022 72.7619 389.877 74.2256 387.03 75.188ZM378.188 55.6391C375.701 55.6391 373.797 55.6992 372.473 55.8195V71.5188H376.624C378.629 71.5188 380.433 71.4185 382.037 71.218C383.641 71.0175 384.985 70.6366 386.067 70.0752C387.19 69.5138 388.052 68.7318 388.654 67.7293C389.255 66.6867 389.556 65.3233 389.556 63.6391C389.556 62.0752 389.255 60.7719 388.654 59.7293C388.052 58.6867 387.23 57.8647 386.188 57.2632C385.185 56.6616 383.982 56.2406 382.579 56C381.215 55.7594 379.752 55.6391 378.188 55.6391Z" fill="#00313D"/>
</svg>
