<svg viewBox="0 0 480 192" fill="none" xmlns="http://www.w3.org/2000/svg">
<path fill-rule="evenodd" clip-rule="evenodd" d="M81.5895 121.27C71.5881 119.912 61.7142 116.263 54.022 108.57C35.4547 90.0032 35.308 60.002 53.6944 41.6155C72.0809 23.229 102.082 23.3758 120.649 41.9431C128.202 49.4958 131.796 59.3158 133.147 69.3087C114.096 66.7204 94.5765 72.4387 88.7641 74.355C87.6728 74.7349 86.8209 75.5958 86.4523 76.6911C84.5888 82.5422 79.0159 102.224 81.5895 121.27ZM133.147 69.3087C143.149 70.6673 153.023 74.3163 160.715 82.0085C179.282 100.576 179.429 130.577 161.042 148.963C142.656 167.35 112.655 167.203 94.0875 148.636C86.5348 141.083 82.94 131.263 81.5895 121.27C100.641 123.859 120.16 118.14 125.973 116.224C127.064 115.844 127.916 114.983 128.285 113.888C130.148 108.037 135.721 88.3553 133.147 69.3087Z" fill="white"/>
<path d="M228.271 110.831C227.87 109.868 227.328 108.645 226.647 107.162C226.005 105.678 225.303 104.074 224.541 102.35C223.779 100.625 222.957 98.8609 222.075 97.0564C221.233 95.2118 220.431 93.4875 219.669 91.8835C218.907 90.2394 218.185 88.7757 217.504 87.4925C216.862 86.2093 216.341 85.2268 215.94 84.5451C215.499 89.2769 215.138 94.4098 214.857 99.9436C214.576 105.437 214.336 110.991 214.135 116.605H208.421C208.581 112.996 208.762 109.367 208.962 105.718C209.163 102.029 209.383 98.4198 209.624 94.891C209.905 91.3221 210.185 87.8534 210.466 84.485C210.787 81.1165 211.128 77.9286 211.489 74.9211H216.601C217.684 76.6855 218.847 78.7707 220.09 81.1767C221.333 83.5827 222.576 86.109 223.82 88.7556C225.063 91.3622 226.266 93.9887 227.429 96.6353C228.591 99.2419 229.654 101.628 230.617 103.793C231.579 101.628 232.642 99.2419 233.804 96.6353C234.967 93.9887 236.17 91.3622 237.414 88.7556C238.657 86.109 239.9 83.5827 241.143 81.1767C242.386 78.7707 243.549 76.6855 244.632 74.9211H249.744C251.108 88.3546 252.13 102.249 252.812 116.605H247.098C246.897 110.991 246.657 105.437 246.376 99.9436C246.095 94.4098 245.734 89.2769 245.293 84.5451C244.892 85.2268 244.351 86.2093 243.669 87.4925C243.028 88.7757 242.326 90.2394 241.564 91.8835C240.802 93.4875 239.98 95.2118 239.098 97.0564C238.256 98.8609 237.454 100.625 236.692 102.35C235.93 104.074 235.208 105.678 234.526 107.162C233.885 108.645 233.363 109.868 232.962 110.831H228.271Z" fill="white"/>
<path d="M276.998 74.9211H282.833V116.605H276.998V74.9211Z" fill="white"/>
<path d="M336.039 74.9211V79.9737H322.926V116.605H317.092V79.9737H303.979V74.9211H336.039Z" fill="white"/>
<path d="M357.238 116.605V74.9211H382.681V79.9135H363.072V92.3045H380.516V97.1767H363.072V111.613H384.185V116.605H357.238Z" fill="white"/>
<path d="M427.03 99.1617C427.671 99.9637 428.473 101.026 429.436 102.35C430.438 103.633 431.461 105.076 432.503 106.68C433.546 108.244 434.569 109.888 435.571 111.613C436.614 113.337 437.496 115.001 438.218 116.605H431.842C431.04 115.081 430.158 113.538 429.195 111.974C428.273 110.41 427.33 108.926 426.368 107.523C425.406 106.079 424.443 104.736 423.481 103.492C422.559 102.249 421.716 101.167 420.955 100.244C420.433 100.284 419.892 100.305 419.33 100.305C418.809 100.305 418.268 100.305 417.706 100.305H412.473V116.605H406.639V75.5226C408.283 75.1216 410.107 74.8609 412.112 74.7406C414.158 74.5802 416.022 74.5 417.706 74.5C423.561 74.5 428.012 75.6028 431.06 77.8083C434.148 80.0138 435.691 83.302 435.691 87.6729C435.691 90.4399 434.95 92.8058 433.466 94.7707C432.022 96.7356 429.877 98.1992 427.03 99.1617ZM418.188 79.6128C415.701 79.6128 413.797 79.6729 412.473 79.7932V95.4925H416.624C418.629 95.4925 420.433 95.3922 422.037 95.1917C423.641 94.9912 424.985 94.6103 426.067 94.0489C427.19 93.4875 428.052 92.7055 428.654 91.703C429.255 90.6604 429.556 89.297 429.556 87.6128C429.556 86.0489 429.255 84.7456 428.654 83.703C428.052 82.6604 427.23 81.8383 426.188 81.2368C425.185 80.6353 423.982 80.2143 422.579 79.9737C421.215 79.7331 419.752 79.6128 418.188 79.6128Z" fill="white"/>
</svg>
