<svg viewBox="0 0 399 137" fill="none" xmlns="http://www.w3.org/2000/svg">
<path fill-rule="evenodd" clip-rule="evenodd" d="M41.5895 94.2702C31.5881 92.9117 21.7142 89.2626 14.022 81.5704C-4.54525 63.0032 -4.69205 33.002 13.6944 14.6155C32.0809 -3.77099 62.0821 -3.62421 80.6494 14.9431C88.2021 22.4958 91.7964 32.3158 93.1473 42.3087C74.0958 39.7204 54.5765 45.4386 48.7641 47.355C47.6728 47.7348 46.8209 48.5957 46.4523 49.6911C44.5888 55.5421 39.0159 75.2237 41.5895 94.2702ZM93.1473 42.3087C103.149 43.6672 113.023 47.3163 120.715 55.0085C139.282 73.5758 139.429 103.577 121.042 121.963C102.656 140.35 72.6548 140.203 54.0875 121.636C46.5348 114.083 42.94 104.263 41.5895 94.2702C60.641 96.8586 80.1603 91.1403 85.9727 89.224C87.064 88.8441 87.9159 87.9832 88.2846 86.8879C90.1481 81.0368 95.7209 61.3552 93.1473 42.3087Z" fill="#086673"/>
<path d="M188.271 83.8308C187.87 82.8684 187.328 81.6454 186.647 80.1617C186.005 78.6779 185.303 77.0739 184.541 75.3496C183.779 73.6253 182.957 71.8609 182.075 70.0564C181.233 68.2118 180.431 66.4875 179.669 64.8835C178.907 63.2394 178.185 61.7757 177.504 60.4925C176.862 59.2093 176.341 58.2268 175.94 57.5451C175.499 62.2769 175.138 67.4098 174.857 72.9436C174.576 78.4373 174.336 83.9912 174.135 89.6053H168.421C168.581 85.9962 168.762 82.3672 168.962 78.718C169.163 75.0288 169.383 71.4198 169.624 67.891C169.905 64.3221 170.185 60.8534 170.466 57.485C170.787 54.1165 171.128 50.9286 171.489 47.9211H176.601C177.684 49.6855 178.847 51.7707 180.09 54.1767C181.333 56.5827 182.576 59.109 183.82 61.7556C185.063 64.3622 186.266 66.9887 187.429 69.6353C188.591 72.2419 189.654 74.6278 190.617 76.7932C191.579 74.6278 192.642 72.2419 193.804 69.6353C194.967 66.9887 196.17 64.3622 197.414 61.7556C198.657 59.109 199.9 56.5827 201.143 54.1767C202.386 51.7707 203.549 49.6855 204.632 47.9211H209.744C211.108 61.3546 212.13 75.2494 212.812 89.6053H207.098C206.897 83.9912 206.657 78.4373 206.376 72.9436C206.095 67.4098 205.734 62.2769 205.293 57.5451C204.892 58.2268 204.351 59.2093 203.669 60.4925C203.028 61.7757 202.326 63.2394 201.564 64.8835C200.802 66.4875 199.98 68.2118 199.098 70.0564C198.256 71.8609 197.454 73.6253 196.692 75.3496C195.93 77.0739 195.208 78.6779 194.526 80.1617C193.885 81.6454 193.363 82.8684 192.962 83.8308H188.271Z" fill="#00171A" fill-opacity="0.9"/>
<path d="M236.998 47.9211H242.833V89.6053H236.998V47.9211Z" fill="#00171A" fill-opacity="0.9"/>
<path d="M296.039 47.9211V52.9737H282.926V89.6053H277.092V52.9737H263.979V47.9211H296.039Z" fill="#00171A" fill-opacity="0.9"/>
<path d="M317.238 89.6053V47.9211H342.681V52.9135H323.072V65.3045H340.516V70.1767H323.072V84.6128H344.185V89.6053H317.238Z" fill="#00171A" fill-opacity="0.9"/>
<path d="M387.03 72.1617C387.671 72.9637 388.473 74.0263 389.436 75.3496C390.438 76.6328 391.461 78.0764 392.503 79.6805C393.546 81.2444 394.569 82.8885 395.571 84.6128C396.614 86.3371 397.496 88.0013 398.218 89.6053H391.842C391.04 88.0815 390.158 86.5376 389.195 84.9737C388.273 83.4098 387.33 81.9261 386.368 80.5226C385.406 79.0789 384.443 77.7356 383.481 76.4925C382.559 75.2494 381.716 74.1667 380.955 73.2444C380.433 73.2845 379.892 73.3045 379.33 73.3045C378.809 73.3045 378.268 73.3045 377.706 73.3045H372.473V89.6053H366.639V48.5226C368.283 48.1216 370.107 47.8609 372.112 47.7406C374.158 47.5802 376.022 47.5 377.706 47.5C383.561 47.5 388.012 48.6028 391.06 50.8083C394.148 53.0138 395.691 56.302 395.691 60.6729C395.691 63.4399 394.95 65.8058 393.466 67.7707C392.022 69.7356 389.877 71.1992 387.03 72.1617ZM378.188 52.6128C375.701 52.6128 373.797 52.6729 372.473 52.7932V68.4925H376.624C378.629 68.4925 380.433 68.3922 382.037 68.1917C383.641 67.9912 384.985 67.6103 386.067 67.0489C387.19 66.4875 388.052 65.7055 388.654 64.703C389.255 63.6604 389.556 62.297 389.556 60.6128C389.556 59.0489 389.255 57.7456 388.654 56.703C388.052 55.6604 387.23 54.8383 386.188 54.2368C385.185 53.6353 383.982 53.2143 382.579 52.9737C381.215 52.7331 379.752 52.6128 378.188 52.6128Z" fill="#00171A" fill-opacity="0.9"/>
</svg>
