<svg width="24" height="24" viewBox="0 0 24 24" fill="none" xmlns="http://www.w3.org/2000/svg">
<path fill-rule="evenodd" clip-rule="evenodd" d="M7.94681 16.4368C6.63779 16.1567 5.32606 15.5798 4.25186 14.5056C1.27392 11.5276 1.24036 6.70308 4.2061 3.73735C7.17183 0.771615 11.9964 0.805164 14.9743 3.78311C16.0326 4.84138 16.6005 6.1448 16.8775 7.44681C18.1865 7.72689 19.4982 8.30383 20.5724 9.37803C23.5504 12.356 23.5839 17.1805 20.6182 20.1462C17.6525 23.112 12.8279 23.0784 9.84999 20.1005C8.79172 19.0422 8.22384 17.7388 7.94681 16.4368ZM10.0721 16.6638C12.4588 16.6939 14.6175 16.0504 15.324 15.8174L15.3319 15.8148L15.3397 15.8121C15.7841 15.6574 16.1316 15.3062 16.2816 14.8603L16.2842 14.8526L16.2867 14.8448C16.5128 14.1349 17.139 11.9617 17.1049 9.57353C17.8768 9.82089 18.578 10.212 19.1582 10.7922C21.3682 13.0022 21.3757 16.5604 19.204 18.732C17.0323 20.9037 13.4742 20.8962 11.2642 18.6863C10.6995 18.1215 10.3161 17.4307 10.0721 16.6638ZM7.7194 14.3101C6.94753 14.0627 6.24628 13.6716 5.66607 13.0913C3.4561 10.8814 3.44864 7.32323 5.62031 5.15156C7.79198 2.97989 11.3501 2.98735 13.5601 5.19732C14.1248 5.76207 14.5083 6.45287 14.7522 7.21978C12.3655 7.18966 10.2068 7.83323 9.50027 8.06618L9.49243 8.06876L9.48464 8.07148C9.04017 8.22619 8.69273 8.57741 8.54266 9.02325L8.54005 9.031L8.53757 9.03879C8.31149 9.74866 7.68528 11.9219 7.7194 14.3101ZM9.73071 14.6531C9.63265 12.6862 10.1102 10.7615 10.3687 9.8887C11.2334 9.6237 13.1365 9.13542 15.0936 9.23045C15.1916 11.1973 14.7141 13.1221 14.4556 13.9949C13.5909 14.2599 11.6878 14.7482 9.73071 14.6531Z" fill="currentColor"/>
</svg>
