<svg viewBox="0 0 24 24" fill="none" xmlns="http://www.w3.org/2000/svg">
<path fill-rule="evenodd" clip-rule="evenodd" d="M14.71 3.5H20C20.28 3.5 20.5 3.72 20.5 4V9.29C20.5 9.74 19.96 9.96 19.64 9.65L17.7 7.71L9.90999 15.5C9.51999 15.89 8.88999 15.89 8.49999 15.5C8.10999 15.11 8.10999 14.48 8.49999 14.09L16.3 6.29L14.36 4.35C14.04 4.04 14.26 3.5 14.71 3.5ZM17.5 13.5C17.5 12.95 17.95 12.5 18.5 12.5C19.05 12.5 19.5 12.95 19.5 13.5V18.5C19.5 19.6 18.6 20.5 17.5 20.5H5.5C4.4 20.5 3.5 19.6 3.5 18.5V6.5C3.5 5.4 4.4 4.5 5.5 4.5H10.5C11.05 4.5 11.5 4.95 11.5 5.5C11.5 6.05 11.05 6.5 10.5 6.5H5.5V18.5H17.5V13.5Z" fill="currentColor"/>
</svg>
