<svg viewBox="0 0 24 24" fill="none" xmlns="http://www.w3.org/2000/svg">
<path d="M13.3258 3.06771C13.6589 3.21234 13.8569 3.5593 13.8118 3.91971L13.1086 9.54547H19.5454C19.8628 9.54547 20.1517 9.72912 20.2863 10.0166C20.421 10.3041 20.3772 10.6435 20.1739 10.8874L11.9921 20.7056C11.7596 20.9846 11.371 21.0769 11.0378 20.9323C10.7046 20.7877 10.5067 20.4407 10.5517 20.0803L11.255 14.4545H4.81819C4.50072 14.4545 4.21191 14.2709 4.07725 13.9834C3.9426 13.6959 3.98641 13.3565 4.18965 13.1126L12.3714 3.29444C12.6039 3.01541 12.9926 2.92308 13.3258 3.06771Z" fill="currentColor"/>
</svg>
