<svg viewBox="0 0 24 24" fill="none" xmlns="http://www.w3.org/2000/svg">
<path fill-rule="evenodd" clip-rule="evenodd" d="M13.362 2.07523C13.7321 2.23593 13.9521 2.62144 13.902 3.0219L13.1207 9.27274H20.2726C20.6254 9.27274 20.9463 9.4768 21.0959 9.79623C21.2455 10.1157 21.1968 10.4928 20.971 10.7638L11.8802 21.6728C11.6218 21.9829 11.19 22.0855 10.8198 21.9248C10.4496 21.7641 10.2297 21.3786 10.2797 20.9781L11.0611 14.7273H3.9091C3.55636 14.7273 3.23546 14.5232 3.08584 14.2038C2.93622 13.8843 2.9849 13.5072 3.21072 13.2362L12.3016 2.32715C12.5599 2.01712 12.9918 1.91453 13.362 2.07523ZM5.85003 12.9091H12.0909C12.3516 12.9091 12.5998 13.0211 12.7724 13.2165C12.945 13.412 13.0253 13.6722 12.9929 13.9309L12.4685 18.1268L18.3317 11.0909H12.0909C11.8301 11.0909 11.5819 10.9789 11.4094 10.7835C11.2368 10.588 11.1565 10.3278 11.1888 10.0691L11.7133 5.87317L5.85003 12.9091Z" fill="currentColor"/>
</svg>
