<svg viewBox="0 0 24 24" fill="none" xmlns="http://www.w3.org/2000/svg">
<path fill-rule="evenodd" clip-rule="evenodd" d="M21.15 6.49999C21.15 8.42999 19.58 9.99999 17.65 9.99999C17.24 9.99999 16.85 9.91999 16.48 9.78999L6.15999 20.1C5.57999 20.69 4.62999 20.69 4.03999 20.1C3.44999 19.52 3.44999 18.57 4.03999 17.98L10.39 11.63L8.60999 9.84999C8.21999 10.24 7.58999 10.24 7.19999 9.84999L6.49999 9.14999V11.69C6.49999 11.88 6.41999 12.06 6.28999 12.19C6.00999 12.47 5.56999 12.47 5.28999 12.19L2.74999 9.64999C2.46999 9.36999 2.46999 8.92999 2.74999 8.64999C2.87999 8.50999 3.05999 8.43999 3.24999 8.43999H5.78999L5.07999 7.72999C4.68999 7.33999 4.68999 6.70999 5.07999 6.31999L7.89999 3.48999C9.06999 2.31999 10.97 2.31999 12.14 3.48999L10.02 5.60999L10.73 6.31999C11.12 6.70999 11.12 7.33999 10.73 7.72999L12.51 9.50999L14.36 7.65999C14.23 7.29999 14.15 6.90999 14.15 6.49999C14.15 4.56999 15.72 2.99999 17.65 2.99999C18.23 2.99999 18.77 3.15999 19.25 3.40999L16.55 6.10999L18.04 7.59999L20.74 4.89999C20.99 5.37999 21.15 5.91999 21.15 6.49999ZM16.05 13.05L20.99 17.99C21.57 18.57 21.57 19.52 20.99 20.11C20.41 20.7 19.46 20.7 18.87 20.11L13.93 15.17L16.05 13.05Z" fill="currentColor"/>
</svg>
