<svg width="28" height="28" viewBox="0 0 28 28" fill="none" xmlns="http://www.w3.org/2000/svg">
<g filter="url(#filter0_d)">
<path d="M15.9114 4.50608C16.4751 3.68372 17.7633 4.10228 17.7359 5.09889L17.5787 10.8222C17.5693 11.1617 17.7329 11.4826 18.0129 11.6746L22.7357 14.9115C23.558 15.4751 23.1395 16.7633 22.1428 16.7359L16.4195 16.5787C16.0801 16.5694 15.7591 16.7329 15.5672 17.013L12.3303 21.7357C11.7666 22.558 10.4784 22.1395 10.5058 21.1429L10.663 15.4195C10.6724 15.0801 10.5088 14.7592 10.2288 14.5672L5.50606 11.3303C4.68369 10.7667 5.10226 9.47845 6.09887 9.50583L11.8222 9.66308C12.1616 9.6724 12.4826 9.50887 12.6745 9.2288L15.9114 4.50608Z" fill="#B8A293" shape-rendering="crispEdges"/>
<path d="M15.9114 4.50608C16.4751 3.68372 17.7633 4.10228 17.7359 5.09889L17.5787 10.8222C17.5693 11.1617 17.7329 11.4826 18.0129 11.6746L22.7357 14.9115C23.558 15.4751 23.1395 16.7633 22.1428 16.7359L16.4195 16.5787C16.0801 16.5694 15.7591 16.7329 15.5672 17.013L12.3303 21.7357C11.7666 22.558 10.4784 22.1395 10.5058 21.1429L10.663 15.4195C10.6724 15.0801 10.5088 14.7592 10.2288 14.5672L5.50606 11.3303C4.68369 10.7667 5.10226 9.47845 6.09887 9.50583L11.8222 9.66308C12.1616 9.6724 12.4826 9.50887 12.6745 9.2288L15.9114 4.50608Z" stroke="white" stroke-opacity="0.67" stroke-width="0.5" shape-rendering="crispEdges"/>
</g>
<defs>
<filter id="filter0_d" x="0.880859" y="0.88092" width="26.4799" height="26.4799" filterUnits="userSpaceOnUse" color-interpolation-filters="sRGB">
<feFlood flood-opacity="0" result="BackgroundImageFix"/>
<feColorMatrix in="SourceAlpha" type="matrix" values="0 0 0 0 0 0 0 0 0 0 0 0 0 0 0 0 0 0 127 0" result="hardAlpha"/>
<feOffset dy="1"/>
<feGaussianBlur stdDeviation="0.5"/>
<feComposite in2="hardAlpha" operator="out"/>
<feColorMatrix type="matrix" values="0 0 0 0 0 0 0 0 0 0 0 0 0 0 0 0 0 0 0.12 0"/>
<feBlend mode="normal" in2="BackgroundImageFix" result="effect1_dropShadow"/>
<feBlend mode="normal" in="SourceGraphic" in2="effect1_dropShadow" result="shape"/>
</filter>
</defs>
</svg>
