<svg width="24" height="25" viewBox="0 0 24 25" fill="none" xmlns="http://www.w3.org/2000/svg">
<g filter="url(#filter0_d)">
<path d="M13.0488 4.45469C14.2849 4.05307 15.639 4.49305 16.4029 5.54451L20.0595 10.5773C20.8234 11.6288 20.8234 13.0526 20.0595 14.104L16.4029 19.1368C15.639 20.1883 14.2849 20.6283 13.0488 20.2266L7.13241 18.3043C5.89634 17.9026 5.05946 16.7508 5.05946 15.4511L5.05946 9.23022C5.05946 7.93054 5.89634 6.77868 7.13241 6.37705L13.0488 4.45469Z" fill="#5ECFD6" shape-rendering="crispEdges"/>
<path d="M13.0488 4.45469C14.2849 4.05307 15.639 4.49305 16.4029 5.54451L20.0595 10.5773C20.8234 11.6288 20.8234 13.0526 20.0595 14.104L16.4029 19.1368C15.639 20.1883 14.2849 20.6283 13.0488 20.2266L7.13241 18.3043C5.89634 17.9026 5.05946 16.7508 5.05946 15.4511L5.05946 9.23022C5.05946 7.93054 5.89634 6.77868 7.13241 6.37705L13.0488 4.45469Z" stroke="white" stroke-opacity="0.67" stroke-width="0.5" shape-rendering="crispEdges"/>
</g>
<defs>
<filter id="filter0_d" x="1.13574" y="1.65735" width="22.7221" height="22.4055" filterUnits="userSpaceOnUse" color-interpolation-filters="sRGB">
<feFlood flood-opacity="0" result="BackgroundImageFix"/>
<feColorMatrix in="SourceAlpha" type="matrix" values="0 0 0 0 0 0 0 0 0 0 0 0 0 0 0 0 0 0 127 0" result="hardAlpha"/>
<feOffset dy="1"/>
<feGaussianBlur stdDeviation="0.5"/>
<feComposite in2="hardAlpha" operator="out"/>
<feColorMatrix type="matrix" values="0 0 0 0 0 0 0 0 0 0 0 0 0 0 0 0 0 0 0.12 0"/>
<feBlend mode="normal" in2="BackgroundImageFix" result="effect1_dropShadow"/>
<feBlend mode="normal" in="SourceGraphic" in2="effect1_dropShadow" result="shape"/>
</filter>
</defs>
</svg>
