<svg width="25" height="25" viewBox="0 0 25 25" fill="none" xmlns="http://www.w3.org/2000/svg">
<g filter="url(#filter0_d)">
<path d="M13.6026 3.93009C14.161 3.07835 15.4866 3.50905 15.4377 4.52636L15.0893 11.7811C15.081 11.9534 15.1175 12.125 15.1952 12.2791L18.4642 18.7649C18.9226 19.6744 17.8868 20.607 17.0303 20.056L10.9217 16.1269C10.7766 16.0336 10.6097 15.9794 10.4375 15.9696L3.18609 15.5578C2.16924 15.5 1.87946 14.1367 2.78491 13.6704L9.24186 10.3448C9.39528 10.2658 9.52564 10.1484 9.62027 10.0041L13.6026 3.93009Z" fill="#B7D17D" shape-rendering="crispEdges"/>
<path d="M13.6026 3.93009C14.161 3.07835 15.4866 3.50905 15.4377 4.52636L15.0893 11.7811C15.081 11.9534 15.1175 12.125 15.1952 12.2791L18.4642 18.7649C18.9226 19.6744 17.8868 20.607 17.0303 20.056L10.9217 16.1269C10.7766 16.0336 10.6097 15.9794 10.4375 15.9696L3.18609 15.5578C2.16924 15.5 1.87946 14.1367 2.78491 13.6704L9.24186 10.3448C9.39528 10.2658 9.52564 10.1484 9.62027 10.0041L13.6026 3.93009Z" stroke="white" stroke-opacity="0.67" stroke-width="0.5" shape-rendering="crispEdges"/>
</g>
<defs>
<filter id="filter0_d" x="0.660889" y="0.573669" width="23.523" height="22.2217" filterUnits="userSpaceOnUse" color-interpolation-filters="sRGB">
<feFlood flood-opacity="0" result="BackgroundImageFix"/>
<feColorMatrix in="SourceAlpha" type="matrix" values="0 0 0 0 0 0 0 0 0 0 0 0 0 0 0 0 0 0 127 0" result="hardAlpha"/>
<feOffset dy="1"/>
<feGaussianBlur stdDeviation="0.5"/>
<feComposite in2="hardAlpha" operator="out"/>
<feColorMatrix type="matrix" values="0 0 0 0 0 0 0 0 0 0 0 0 0 0 0 0 0 0 0.12 0"/>
<feBlend mode="normal" in2="BackgroundImageFix" result="effect1_dropShadow"/>
<feBlend mode="normal" in="SourceGraphic" in2="effect1_dropShadow" result="shape"/>
</filter>
</defs>
</svg>
