<svg width="26" height="26" viewBox="0 0 26 26" fill="none" xmlns="http://www.w3.org/2000/svg">
<g filter="url(#filter0_d)">
<path d="M7.76026 6.05256C8.27226 4.47679 9.96472 3.61444 11.5405 4.12644L18.9479 6.53324C20.5236 7.04524 21.386 8.7377 20.874 10.3135L18.4672 17.7208C17.9552 19.2966 16.2627 20.159 14.687 19.647L7.27958 17.2402C5.70382 16.7282 4.84146 15.0357 5.35346 13.4599L7.76026 6.05256Z" fill="#7CCF87" shape-rendering="crispEdges"/>
<path d="M7.76026 6.05256C8.27226 4.47679 9.96472 3.61444 11.5405 4.12644L18.9479 6.53324C20.5236 7.04524 21.386 8.7377 20.874 10.3135L18.4672 17.7208C17.9552 19.2966 16.2627 20.159 14.687 19.647L7.27958 17.2402C5.70382 16.7282 4.84146 15.0357 5.35346 13.4599L7.76026 6.05256Z" stroke="white" stroke-opacity="0.67" stroke-width="0.5" shape-rendering="crispEdges"/>
</g>
<defs>
<filter id="filter0_d" x="0.335083" y="0.108093" width="25.5572" height="25.5572" filterUnits="userSpaceOnUse" color-interpolation-filters="sRGB">
<feFlood flood-opacity="0" result="BackgroundImageFix"/>
<feColorMatrix in="SourceAlpha" type="matrix" values="0 0 0 0 0 0 0 0 0 0 0 0 0 0 0 0 0 0 127 0" result="hardAlpha"/>
<feOffset dy="1"/>
<feGaussianBlur stdDeviation="0.5"/>
<feComposite in2="hardAlpha" operator="out"/>
<feColorMatrix type="matrix" values="0 0 0 0 0 0 0 0 0 0 0 0 0 0 0 0 0 0 0.12 0"/>
<feBlend mode="normal" in2="BackgroundImageFix" result="effect1_dropShadow"/>
<feBlend mode="normal" in="SourceGraphic" in2="effect1_dropShadow" result="shape"/>
</filter>
</defs>
</svg>
